<?xml version="1.0" encoding="utf-8"?>
<!-- Generator: Adobe Illustrator 19.0.0, SVG Export Plug-In . SVG Version: 6.00 Build 0)  -->
<svg version="1.1" id="Layer_1" xmlns="http://www.w3.org/2000/svg" xmlns:xlink="http://www.w3.org/1999/xlink" x="0px" y="0px"
	 viewBox="0 0 960 602.9" style="enable-background:new 0 0 960 602.9;" xml:space="preserve">
<style type="text/css">
	.st0{fill:#D9E5ED;}
	.st1{opacity:0.63;fill:#B07BED;}
	.st2{opacity:0.71;fill:#FDC06A;}
	.st3{opacity:0.47;fill:#FEBB46;}
	.st4{opacity:0.6;fill:#E38DDD;}
	.st5{opacity:0.83;fill:#F99A4D;}
	.st6{fill:#F99A4D;}
</style>
<rect id="XMLID_12_" y="0.7" class="st0" width="960" height="602.2"/>
<path id="XMLID_1_" class="st1" d="M738,1h222v200c0,0-62.4,1.9-81.7-49.2s-43.1-71.6-63.5-67c-20.5,4.5-31.8,5.7-53.3-1.1
	c-21.6-6.8-55.7-46.6-61.3-56.8s-18.2-26.2-14.8-26C688.8,0.9,738,1,738,1z"/>
<circle id="XMLID_2_" class="st2" cx="578.5" cy="65" r="25.6"/>
<ellipse id="XMLID_6_" class="st3" cx="533.2" cy="103" rx="12.5" ry="12.4"/>
<path id="XMLID_7_" class="st4" d="M0,603V429c0,0,56,111.8,137.1,108.8S262.8,603,262.8,603H0z"/>
<ellipse id="XMLID_10_" class="st5" cx="744" cy="504" rx="43.8" ry="48.9"/>
<ellipse id="XMLID_11_" class="st6" cx="813.9" cy="464" rx="26.1" ry="27.3"/>
</svg>
